
Cover 
 
http://desibbrg.net/imghost/show.php?img=429779_Nadir.Shah.1968.X264.AAC.RRG.DADA..jpg.html

Screens

 
http://desibbrg.net/imghost/show.php?img=429783_Nadir.Shah.1968.X264.AAC.RRG.DADA.DBBIANS.Comthumbs.jpg.html
 
http://www.imdb.com/title/tt1286595/


General

Format                           : MP4 Video
File size                        : 389 MiB
Duration                         : 2h 3mn
Overall bit rate                 : 439 Kbps


Video
Format                           : AVC
Format/Info                      : Advanced Video Codec
Format profile                   : Main@L2.1
Format settings, CABAC           : Yes
Format settings, ReFrames        : 3 frames
Muxing mode                      : Container profile=Unknown@2.1
Duration                         : 2h 3mn
Bit rate                         : 302 Kbps
Width                            : 384 pixels
Height                           : 288 pixels
Display aspect ratio             : 4:3
Frame rate mode                  : Constant
Frame rate                       : 25.000 fps
Color space                      : YUV
Chroma subsampling               : 4:2:0
Bit depth                        : 8 bits
Scan type                        : Progressive
Bits/(Pixel*Frame)               : 0.109
Stream size                      : 268 MiB (69%)

Audio
Format                           : AAC
Format/Info                      : Advanced Audio Codec
Format version                   : Version 4
Format profile                   : LC
Format settings, SBR             : No
Duration                         : 2h 3mn
Bit rate                         : 129 Kbps
Channel(s)                       : 2 channels
Channel positions                : Front: L R
Sampling rate                    : 44.1 KHz
Bit depth                        : 16 bits
Stream size                      : 114 MiB (29%)


Nadir Shah Cast & Crew:

    Banner
    Amarjeet Productions

    Release Date
    1 Jan 1968

    Star Cast
    Feroz Khan
    Naaz
    Sheikh Mukhtar
    Murad
    Minoo
    Mumtaz
    Hiralal

Color
C
Language
Hindi
Director

    S N Tripathi
